<svg width="330" height="321" viewBox="0 0 330 321" fill="none" xmlns="http://www.w3.org/2000/svg">
<rect width="329.031" height="320.587" fill="#1D251D"/>
<path d="M132.033 154.075C131.047 153.539 130.037 153.096 129.004 152.747C127.995 152.397 127.044 152.222 126.152 152.222C125.048 152.222 124.179 152.444 123.546 152.886C122.912 153.329 122.595 153.993 122.595 154.879C122.595 155.485 122.829 156.032 123.299 156.522C123.792 156.988 124.414 157.407 125.166 157.78C125.94 158.153 126.739 158.491 127.56 158.794C128.312 159.074 129.051 159.412 129.779 159.808C130.53 160.181 131.2 160.658 131.787 161.241C132.374 161.8 132.843 162.511 133.195 163.373C133.547 164.212 133.724 165.249 133.724 166.484C133.724 167.789 133.383 169.001 132.702 170.12C132.021 171.238 131.024 172.147 129.709 172.846C128.394 173.522 126.774 173.86 124.849 173.86C123.862 173.86 122.853 173.767 121.82 173.581C120.81 173.371 119.812 173.068 118.826 172.672C117.84 172.252 116.889 171.728 115.974 171.099L118.228 167.149C118.838 167.591 119.495 167.988 120.2 168.337C120.928 168.663 121.655 168.92 122.383 169.106C123.111 169.293 123.78 169.386 124.391 169.386C125.001 169.386 125.612 169.304 126.222 169.141C126.856 168.955 127.373 168.652 127.772 168.232C128.194 167.813 128.406 167.23 128.406 166.484C128.406 165.972 128.23 165.506 127.877 165.086C127.549 164.667 127.091 164.282 126.504 163.933C125.94 163.583 125.318 163.28 124.637 163.024C123.839 162.721 123.017 162.371 122.172 161.975C121.327 161.579 120.529 161.101 119.777 160.542C119.049 159.959 118.451 159.248 117.981 158.409C117.535 157.547 117.312 156.499 117.312 155.263C117.312 153.772 117.641 152.479 118.298 151.383C118.979 150.288 119.93 149.426 121.151 148.797C122.372 148.144 123.78 147.783 125.377 147.713C127.466 147.713 129.157 147.958 130.448 148.447C131.763 148.936 132.937 149.519 133.97 150.195L132.033 154.075Z" fill="white"/>
<path d="M135.837 165.75C135.837 164.189 136.201 162.791 136.929 161.556C137.68 160.32 138.725 159.353 140.063 158.654C141.401 157.932 142.939 157.571 144.677 157.571C146.438 157.571 147.964 157.932 149.255 158.654C150.546 159.353 151.532 160.32 152.213 161.556C152.918 162.791 153.27 164.189 153.27 165.75C153.27 167.312 152.918 168.722 152.213 169.98C151.532 171.215 150.546 172.194 149.255 172.916C147.964 173.639 146.414 174 144.606 174C142.916 174 141.401 173.674 140.063 173.021C138.748 172.369 137.715 171.425 136.964 170.19C136.213 168.955 135.837 167.475 135.837 165.75ZM140.803 165.785C140.803 166.578 140.967 167.3 141.296 167.953C141.624 168.582 142.071 169.083 142.634 169.456C143.198 169.829 143.831 170.015 144.536 170.015C145.311 170.015 145.98 169.829 146.543 169.456C147.107 169.083 147.541 168.582 147.846 167.953C148.152 167.3 148.304 166.578 148.304 165.785C148.304 164.97 148.152 164.247 147.846 163.618C147.541 162.989 147.107 162.488 146.543 162.115C145.98 161.742 145.311 161.556 144.536 161.556C143.831 161.556 143.198 161.742 142.634 162.115C142.071 162.488 141.624 162.989 141.296 163.618C140.967 164.247 140.803 164.97 140.803 165.785Z" fill="white"/>
<path d="M169.34 172.217C168.659 172.753 167.802 173.184 166.769 173.511C165.759 173.837 164.761 174 163.775 174C162.014 174 160.476 173.685 159.162 173.056C157.87 172.404 156.861 171.483 156.133 170.295C155.428 169.083 155.076 167.626 155.076 165.925C155.076 164.224 155.464 162.779 156.238 161.591C157.013 160.379 158.023 159.458 159.267 158.829C160.535 158.2 161.862 157.885 163.247 157.885C164.632 157.885 165.829 158.072 166.839 158.444C167.872 158.817 168.753 159.307 169.48 159.913L167.086 163.059C166.757 162.802 166.299 162.546 165.712 162.29C165.149 162.01 164.479 161.87 163.705 161.87C163.024 161.87 162.402 162.045 161.838 162.395C161.275 162.744 160.828 163.222 160.5 163.828C160.171 164.434 160.007 165.133 160.007 165.925C160.007 166.671 160.183 167.358 160.535 167.988C160.887 168.617 161.369 169.118 161.979 169.491C162.613 169.84 163.352 170.015 164.198 170.015C164.738 170.015 165.231 169.945 165.677 169.805C166.146 169.642 166.546 169.421 166.874 169.141L169.34 172.217Z" fill="white"/>
<path d="M172.246 158.305H177.176V173.581H172.246V158.305ZM172.14 152.886C172.14 152.164 172.422 151.57 172.985 151.104C173.572 150.638 174.194 150.404 174.852 150.404C175.509 150.404 176.108 150.638 176.648 151.104C177.211 151.57 177.493 152.164 177.493 152.886C177.493 153.609 177.211 154.203 176.648 154.669C176.108 155.112 175.509 155.333 174.852 155.333C174.194 155.333 173.572 155.112 172.985 154.669C172.422 154.203 172.14 153.609 172.14 152.886Z" fill="white"/>
<path d="M187.854 174C186.421 174 185.118 173.72 183.944 173.161C182.794 172.578 181.878 171.693 181.197 170.504C180.516 169.316 180.176 167.801 180.176 165.96C180.176 164.236 180.528 162.744 181.233 161.486C181.937 160.227 182.864 159.26 184.015 158.584C185.165 157.885 186.386 157.536 187.677 157.536C189.204 157.536 190.354 157.792 191.129 158.305C191.927 158.794 192.585 159.342 193.101 159.948L192.89 160.542L193.348 158.305H197.926V173.581H192.995V170.26L193.383 171.308C193.336 171.308 193.195 171.448 192.96 171.728C192.725 171.984 192.373 172.299 191.904 172.672C191.458 173.021 190.894 173.324 190.213 173.581C189.556 173.86 188.769 174 187.854 174ZM189.262 170.015C189.849 170.015 190.378 169.933 190.847 169.77C191.317 169.584 191.728 169.328 192.08 169.001C192.432 168.652 192.737 168.221 192.995 167.708V163.968C192.808 163.455 192.526 163.024 192.15 162.674C191.774 162.301 191.328 162.022 190.812 161.835C190.295 161.625 189.72 161.521 189.086 161.521C188.382 161.521 187.724 161.707 187.114 162.08C186.527 162.429 186.057 162.919 185.705 163.548C185.353 164.177 185.177 164.9 185.177 165.715C185.177 166.531 185.365 167.265 185.74 167.918C186.116 168.57 186.609 169.083 187.22 169.456C187.854 169.829 188.534 170.015 189.262 170.015Z" fill="white"/>
<path d="M202.126 146H207.057V173.581H202.126V146Z" fill="white"/>
<path d="M217.734 174C216.302 174 214.999 173.72 213.825 173.161C212.674 172.578 211.759 171.693 211.078 170.504C210.397 169.316 210.056 167.801 210.056 165.96C210.056 164.236 210.409 162.744 211.113 161.486C211.817 160.227 212.745 159.26 213.895 158.584C215.046 157.885 216.267 157.536 217.558 157.536C219.084 157.536 220.234 157.792 221.009 158.305C221.807 158.794 222.465 159.342 222.981 159.948L222.77 160.542L223.228 158.305H227.806V173.581H222.876V170.26L223.263 171.308C223.216 171.308 223.075 171.448 222.841 171.728C222.606 171.984 222.254 172.299 221.784 172.672C221.338 173.021 220.774 173.324 220.094 173.581C219.436 173.86 218.65 174 217.734 174ZM219.143 170.015C219.73 170.015 220.258 169.933 220.727 169.77C221.197 169.584 221.608 169.328 221.96 169.001C222.312 168.652 222.618 168.221 222.876 167.708V163.968C222.688 163.455 222.406 163.024 222.031 162.674C221.655 162.301 221.209 162.022 220.692 161.835C220.176 161.625 219.6 161.521 218.967 161.521C218.262 161.521 217.605 161.707 216.994 162.08C216.407 162.429 215.938 162.919 215.586 163.548C215.233 164.177 215.057 164.9 215.057 165.715C215.057 166.531 215.245 167.265 215.621 167.918C215.997 168.57 216.49 169.083 217.1 169.456C217.734 169.829 218.415 170.015 219.143 170.015Z" fill="white"/>
<path d="M79 160.495C79 153.105 85.0405 147.115 92.4303 147.115C99.8755 147.115 105.961 153.15 105.961 160.595V173.875H92.3804C84.9906 173.875 79 167.885 79 160.495Z" fill="#CCFF00"/>
<path d="M94.4257 158.816C94.3073 158.816 94.2114 158.721 94.2114 158.603V150.502C94.2114 150.297 93.9483 150.211 93.8252 150.375L85.6167 161.325C85.3537 161.676 85.6059 162.174 86.0465 162.174H90.5354C90.6537 162.174 90.7497 162.27 90.7497 162.387V170.488C90.7497 170.693 91.0127 170.78 91.1359 170.615L99.3444 159.665C99.6073 159.314 99.3551 158.816 98.9146 158.816H94.4257Z" fill="#1D251D"/>
</svg>
